<svg version="1.1" id="Layer_1" xmlns="http://www.w3.org/2000/svg" xmlns:xlink="http://www.w3.org/1999/xlink" x="0px" y="0px"
	 width="100%" viewBox="0 0 592 592" enable-background="new 0 0 592 592" xml:space="preserve">
<path fill="#000000" opacity="1.000000" stroke="none" 
	d="
M340.985748,148.745605 
	C345.562958,149.047531 349.735748,148.092178 353.781464,149.434540 
	C354.356781,152.326752 352.765839,154.446091 351.827209,156.669083 
	C345.028168,172.771942 338.101959,188.821045 331.291718,204.919220 
	C324.818451,220.220917 328.983887,235.085831 343.090912,244.101410 
	C354.479828,251.379883 366.040924,258.291565 375.290955,268.353516 
	C395.486969,290.322357 405.086060,315.964569 402.398865,345.953918 
	C398.382538,390.776428 367.764099,425.984619 324.105957,435.878845 
	C298.885345,441.594635 275.066498,436.919861 252.591156,425.241821 
	C233.787155,415.471344 213.956680,414.883636 193.713333,416.779266 
	C181.619919,417.911743 169.755341,420.541351 158.163544,424.276001 
	C157.274094,424.562561 156.259308,425.056702 155.282410,424.166016 
	C154.629715,422.367035 155.910309,421.038544 156.615494,419.626648 
	C200.667053,331.425873 244.781799,243.256668 288.717682,154.998383 
	C291.057770,150.297577 293.740387,148.515915 299.009033,148.655090 
	C312.826691,149.020081 326.660919,148.757599 340.985748,148.745605 
M335.429169,288.080505 
	C307.502106,269.481659 271.239563,276.384949 252.575287,303.853363 
	C234.110947,331.027527 241.127029,367.612701 268.399719,386.369537 
	C295.027527,404.682861 331.779968,398.046661 350.409088,371.561462 
	C369.651733,344.204010 363.425964,308.227814 335.429169,288.080505 
z"/>
<path fill="#000000" opacity="1.000000" stroke="none" 
	d="
M316.935394,311.891846 
	C329.126495,319.752319 334.084564,333.293030 329.786804,346.283508 
	C325.307953,359.821381 313.561279,367.307129 298.368896,366.305054 
	C286.371307,365.513672 275.462128,355.458893 273.102325,342.323883 
	C271.012482,330.691803 274.697479,320.661987 284.228027,313.701721 
	C294.327911,306.325592 305.397858,305.573944 316.935394,311.891846 
z"/>
</svg>